Coordinates
version=1
nRows=8
nColumns=33
inDegrees=yes

Units are S.I. units (second, meters, Newtons, ...)
Angles are in degrees.

endheader
time	ground_thorax_rot_x	ground_thorax_rot_y	ground_thorax_rot_z	ground_thorax_tx	ground_thorax_ty	ground_thorax_tz	clav_prot_r	clav_elev_r	scapula_abduction_r	scapula_elevation_r	scapula_upward_rot_r	scapula_winging_r	shoulder_elv_r	plane_of_elev_r	axial_rot_r	elbow_flexion_r	pro_sup_r	wrist_flex_r	wrist_dev_r	clav_prot_l	clav_elev_l	scapula_abduction_l	scapula_elevation_l	scapula_upward_rot_l	scapula_winging_l	shoulder_elv_l	plane_of_elev_l	axial_rot_l	elbow_flexion_l	pro_sup_l	wrist_flex_l	wrist_dev_l
     12.64000000	    -90.00000000	     90.00000000	    -90.00000000	    -73.19602155	    844.14157826	    -44.42180902	     30.14334015	     34.77746928	     45.00000000	     45.00000000	     16.12644854	   2500.43252623	    470.12364322	     30.60264122	    -39.24357487	   1437.07044208	    148.48132632	     12.87072588	     15.45350586	    -45.00000000	     19.12675356	     37.54126056	    -14.97227530	     45.00000000	   3343.74796370	  -5285.04845897	     24.58164694	    179.99999979	   1792.27463792	     40.79458166	     15.27546071	    -23.27395533
     12.65000000	    -90.00000000	     90.00000000	    -90.00000000	    -71.18089138	    843.70963107	    -44.40785804	     30.11584402	     34.81025334	     45.00000000	     45.00000000	     15.94940638	   2500.19063051	    470.08907594	     30.52081901	    -39.81807872	   1437.07087179	    148.86676231	     12.79933625	     15.46790425	    -45.00000000	     19.14257642	     37.60997032	    -14.94508123	     45.00000000	   3343.75864086	  -5284.94046316	     24.51827516	    179.99999979	   1792.46032976	     41.00222118	     15.39190124	    -23.32769644
     12.66000000	    -90.00000000	     90.00000000	    -90.00000000	    -69.13222887	    843.23456688	    -44.36929471	     30.08134166	     34.84208049	     45.00000000	     45.00000000	     15.74432406	   2499.96588663	    470.04014870	     30.42209716	    -40.37319145	   1437.09310051	    149.28955179	     12.72907647	     15.47909370	    -45.00000000	     19.19440147	     37.66806024	    -14.92357536	     45.00000000	   3343.75000416	  -5284.83399514	     24.42829866	    179.99999979	   1792.64641042	     41.19913573	     15.51850931	    -23.38415430
     12.67000000	    -90.00000000	     90.00000000	    -90.00000000	    -67.05204525	    842.71739017	    -44.30710287	     30.04777951	     34.87258351	     45.00000000	     45.00000000	     15.60848407	   2499.71417052	    470.01882345	     30.35391915	    -40.93870677	   1437.09088333	    149.76141506	     12.67207894	     15.48577962	    -45.00000000	     19.22636373	     37.74573064	    -14.92934633	     45.00000000	   3343.79930083	  -5284.73006857	     24.38144350	    179.99999979	   1792.85332936	     41.39275530	     15.62684749	    -23.42107118
     12.68000000	    -90.00000000	     90.00000000	    -90.00000000	    -64.94174218	    842.15993992	    -44.22273672	     30.00817338	     34.90878708	     45.00000000	     45.00000000	     15.42389607	   2499.45684052	    469.97384110	     30.27059122	    -41.47140240	   1437.13943690	    150.27779946	     12.60440058	     15.48337824	    -45.00000000	     19.27291041	     37.81584981	    -14.92668450	     45.00000000	   3343.82782030	  -5284.62246051	     24.31815674	    179.99999979	   1793.03405516	     41.60208866	     15.73943123	    -23.45394576
     12.69000000	    -90.00000000	     90.00000000	    -90.00000000	    -62.80217105	    841.56470397	    -44.11794331	     29.96594633	     34.94726320	     45.00000000	     45.00000000	     15.25680620	   2499.21397771	    469.93190798	     30.19610311	    -42.00712431	   1437.18000540	    150.83536093	     12.54289063	     15.48181371	    -45.00000000	     19.34111707	     37.91699936	    -14.93717056	     45.00000000	   3343.85811390	  -5284.52650014	     24.24639762	    179.99999979	   1793.23612093	     41.79471595	     15.85236216	    -23.48926643
     12.70000000	    -90.00000000	     90.00000000	    -90.00000000	    -60.63466065	    840.93432597	    -43.99431158	     29.92445270	     34.98935412	     45.00000000	     45.00000000	     15.10420270	   2498.95390419	    469.86909947	     30.12911377	    -42.55075500	   1437.17998740	    151.44706735	     12.50496941	     15.47601453	    -45.00000000	     19.39897625	     37.97754714	    -14.94480259	     45.00000000	   3343.87408079	  -5284.40483137	     24.18010002	    179.99999979	   1793.45787500	     42.01385823	     15.94074461	    -23.51632792
     12.71000000	    -90.00000000	     90.00000000	    -90.00000000	    -58.44055210	    840.27077566	    -43.85313288	     29.87965785	     35.03179388	     45.00000000	     45.00000000	     14.95043631	   2498.69922452	    469.80910980	     30.06668772	    -43.08055969	   1437.20155237	    152.10168774	     12.46895058	     15.46395996	    -45.00000000	     19.48439930	     38.06842917	    -14.96909021	     45.00000000	   3343.89979787	  -5284.30305605	     24.10437772	    179.99999979	   1793.67689338	     42.23431049	     16.03370361	    -23.54303371
